<svg xmlns="http://www.w3.org/2000/svg" width="55" height="37" fill="none" viewBox="0 0 55 37">
  <defs/>
  <path fill="#5D70AB" d="M16.2 16.02v8.82h-2.82V13.76h5.83c2.48 0 3.33 1.74 3.33 3.31v7.77h-2.82v-7.75c0-.66-.35-1.07-1.18-1.07H16.2zm19.23-.13c-.97 0-1.71.5-2.03 1.16-.18.4-.25.71-.27 1.2h4.35c-.05-1.2-.6-2.36-2.05-2.36zm-2.3 4.27c0 1.44.9 2.5 2.5 2.5a3.2 3.2 0 002.6-1.06l1.74 1.65a5.6 5.6 0 01-4.35 1.76c-2.71 0-5.3-1.46-5.3-5.73 0-3.65 2.26-5.71 5.23-5.71 3.01 0 4.75 2.42 4.75 5.58v1.01h-7.17zm-5.2 4.66c-2.3 0-3.28-1.59-3.28-3.16V10.74h2.82v3.02h2.13v2.26h-2.13v5.46c0 .65.31 1 .98 1h1.15v2.34h-1.67zm-17.07-12.6H8.01V9.54h2.85v2.68zm0 12.73c-2.12-.2-2.85-1.48-2.85-2.96v-8.23h2.86v11.2zm33.94-.23c-2.13-.2-2.85-1.49-2.85-2.97V9.15h2.85v15.57zm9.96-13.74C52.17-1.52 27.74-2.31 11.99 7.2v1.05C27.72.23 50.04.28 52.07 11.79c.68 3.8-1.48 7.77-5.34 10.05v2.99c4.65-1.69 9.41-7.16 8.03-13.85zM26.13 32.84c-10.87 1-22.2-.57-23.79-9-.77-4.16 1.14-8.56 3.67-11.3v-1.46C1.45 15.04-1.02 20.06.4 25.99c1.8 7.6 11.53 11.92 26.37 10.49 5.87-.57 13.55-2.44 18.9-5.35v-4.14c-4.85 2.87-12.87 5.24-19.55 5.85z"/>
  <path fill="#5D70AB" d="M48.09 10c0-.14-.08-.19-.26-.19h-.18v.4h.18c.18 0 .26-.06.26-.2V10zm.28.96h-.21a.05.05 0 01-.05-.03l-.28-.49-.04-.02h-.13v.48c0 .03-.02.06-.06.06h-.19c-.02 0-.04-.03-.04-.06V9.7c0-.07.02-.1.08-.11l.35-.02c.35 0 .56.1.56.43v.03c0 .2-.1.3-.25.36l.3.5v.04c0 .01 0 .04-.04.04zm-.5-1.61a.94.94 0 100 1.87c.51 0 .94-.42.94-.94a.94.94 0 00-.94-.93zm0 2.06a1.13 1.13 0 110-2.25c.62 0 1.13.5 1.13 1.12 0 .62-.5 1.13-1.13 1.13z"/>
</svg>
