<svg xmlns="http://www.w3.org/2000/svg" width="36" height="36" fill="none" viewBox="0 0 36 36">
  <defs/>
  <g clip-path="url(#clip0)">
    <path fill="#2B468E" d="M34.64 0H8.17a.53.53 0 000 1.05h26.47c.17 0 .3.14.3.31v17.5h-6.37v-1.4c0-.29-.24-.52-.53-.52H26.6a8.8 8.8 0 00-1.27-3.06l1.01-1c.2-.22.2-.55 0-.75l-1.76-1.77a.53.53 0 00-.75 0l-1 1.01a8.8 8.8 0 00-3.06-1.27V8.68c0-.3-.24-.53-.53-.53h-2.5c-.29 0-.52.23-.52.53v1.42a8.8 8.8 0 00-3.06 1.27l-1.01-1a.53.53 0 00-.75 0l-1.76 1.76c-.2.2-.2.53 0 .74l1 1.01a8.8 8.8 0 00-1.26 3.06H7.96c-.29 0-.53.23-.53.53v1.39H1.05V1.36c0-.17.14-.3.31-.3h7.7a.53.53 0 000-1.06h-7.7C.61 0 0 .61 0 1.36v22.2c0 .75.61 1.36 1.36 1.36h12.01v2.25h-1.01a.53.53 0 000 1.05h11.28a.53.53 0 100-1.05h-1.01v-2.25h7.11a.53.53 0 100-1.06H1.36a.3.3 0 01-.3-.3V19.9h33.89v3.65a.3.3 0 01-.31.3h-5.79a.53.53 0 100 1.06h5.79c.75 0 1.36-.61 1.36-1.36V1.36C36 .61 35.39 0 34.64 0zM21.57 27.17h-7.14v-2.25h7.14v2.25zm-6.74-8.46a3.17 3.17 0 116.34.15h-6.34v-.15zm7.4.15v-.15a4.23 4.23 0 10-8.45.15h-5.3v-.87h1.35c.26 0 .48-.19.52-.45.19-1.22.68-2.4 1.42-3.4a.53.53 0 00-.05-.7l-.95-.94 1.01-1.02.95.95c.19.18.48.2.69.05 1-.74 2.18-1.23 3.41-1.41a.53.53 0 00.45-.53V9.2h1.44v1.35c0 .26.2.48.45.52 1.23.18 2.4.67 3.41 1.41.21.16.5.13.69-.05l.95-.95 1.01 1.02-.95.95a.53.53 0 00-.05.68c.74 1 1.23 2.19 1.42 3.41.04.26.26.45.52.45h1.34v.87h-5.29z"/>
  </g>
  <defs>
    <clipPath id="clip0">
      <path fill="#fff" d="M0 0h36v36H0z"/>
    </clipPath>
  </defs>
</svg>
